<?xml version="1.0" standalone="no"?>
<!DOCTYPE svg PUBLIC "-//W3C//DTD SVG 20010904//EN"
 "http://www.w3.org/TR/2001/REC-SVG-20010904/DTD/svg10.dtd">
<svg version="1.0" xmlns="http://www.w3.org/2000/svg"
 width="240.000000pt" height="240.000000pt" viewBox="0 0 240.000000 240.000000"
 preserveAspectRatio="xMidYMid meet">
<metadata>
Created by potrace 1.14, written by Peter Selinger 2001-2017
</metadata>
<g transform="translate(0.000000,240.000000) scale(0.100000,-0.100000)"
fill="#000000" stroke="none">
<path d="M1666 2248 c-66 -9 -97 -43 -180 -192 -36 -66 -66 -123 -66 -126 0
-4 -13 -10 -30 -13 -42 -9 -64 -48 -64 -116 -1 -41 -6 -63 -19 -75 -9 -10 -17
-23 -17 -30 0 -7 -11 -18 -24 -24 -35 -16 -58 -56 -61 -105 -2 -46 -38 -112
-86 -161 -26 -25 -34 -44 -30 -69 2 -11 -58 -127 -91 -175 -16 -23 -31 -51
-33 -61 -2 -11 -16 -41 -31 -68 -15 -26 -42 -77 -61 -113 -48 -90 -54 -93 -48
-30 17 183 46 292 111 426 58 119 61 137 40 187 -21 51 -123 128 -188 143 -5
1 -9 2 -10 4 -33 25 -304 44 -383 26 -11 -2 -41 -9 -67 -15 -137 -32 -248
-121 -253 -205 -2 -37 15 -74 66 -141 83 -110 104 -180 85 -280 -18 -91 -24
-329 -13 -458 24 -271 191 -429 447 -422 199 5 339 115 467 366 20 41 38 76
38 79 1 3 11 25 22 50 37 80 287 690 297 725 2 6 8 24 15 40 30 76 63 159 105
270 26 66 50 127 54 135 4 8 16 40 27 72 10 31 27 67 36 80 l18 23 33 -39 c42
-50 110 -116 120 -116 4 0 23 -16 43 -36 62 -62 129 -83 282 -91 l93 -5 11 28
c10 27 7 31 -40 72 -28 24 -60 61 -73 83 -31 55 -78 81 -150 81 -53 1 -60 3
-82 33 -14 18 -41 63 -62 101 -45 83 -60 101 -99 122 -43 22 -92 29 -149 20z"/>
</g>
</svg>
